<?xml version="1.0" encoding="UTF-8"?>
<svg width="22px" height="19px" viewBox="0 0 22 19" version="1.1" xmlns="http://www.w3.org/2000/svg" xmlns:xlink="http://www.w3.org/1999/xlink">
    <g id="icoHeart" stroke="none" stroke-width="1" fill="none" fill-rule="evenodd">
        <g transform="translate(-1.000000, -3.000000)" fill="#000000" fill-rule="nonzero">
            <g transform="translate(0.300000, 3.000000)">
                <path d="M11.6927951,3.77497756 L14.0535591,1.41421356 C14.8346076,0.633164979 16.1009376,0.633164979 16.8819862,1.41421356 L21.9707589,6.50298627 C22.7518075,7.28403485 22.7518075,8.55036481 21.9707589,9.33141339 L13.0638499,18.2383224 C12.2828013,19.019371 11.0164714,19.019371 10.2354228,18.2383224 L1.41446983,9.41685691 C0.633521317,8.6359084 0.633406609,7.36977606 1.41421361,6.58868606 L6.57013748,1.43038078 C7.35104453,0.649190685 8.61737447,0.648961235 9.39856456,1.42986828 C9.40383852,1.43514033 9.40908295,1.44044184 9.41429761,1.44577255 L11.6927951,3.77497756 Z M8.5564834,2.28491186 L8.55019018,2.27855016 C8.23771415,1.96618734 7.73118217,1.96627912 7.41886151,2.27871298 L2.26289548,7.43706043 C1.95057268,7.74949643 1.95061856,8.25594937 2.26302262,8.56835343 L11.0839509,17.3897943 C11.3963703,17.7022137 11.9029023,17.7022137 12.2153218,17.3897943 L21.1222308,8.48288525 C21.4346502,8.17046582 21.4346502,7.66393384 21.1222308,7.3515144 L16.0334581,2.2627417 C15.7210386,1.95032227 15.2145066,1.95032227 14.9020872,2.2627417 L11.6834057,5.48142323 L8.5564834,2.28491186 Z" id="Path"></path>
                <path d="M6.95861225,13.272292 L6.33528725,12.6159918 C5.80758887,12.0603771 5.82461582,11.183765 6.37349209,10.6490612 L12.1112935,5.05941507 L11.2739352,4.19986228 L5.53613374,9.78950839 C4.5167921,10.7825297 4.48517063,12.4105236 5.46518189,13.4423795 L6.08850689,14.0986797 L6.95861225,13.272292 Z" id="Path-4-Copy"></path>
            </g>
        </g>
    </g>
</svg>