<?xml version="1.0" encoding="UTF-8"?>
<svg width="19px" height="22px" viewBox="0 0 19 22" version="1.1" xmlns="http://www.w3.org/2000/svg" xmlns:xlink="http://www.w3.org/1999/xlink">
    <g id="iconNotification" stroke="none" stroke-width="1" fill="none" fill-rule="evenodd">
        <g transform="translate(-3.000000, -2.000000)" fill="#000000" fill-rule="nonzero">
            <path d="M20.5800781,16.9140625 C20.9355487,17.3515647 21.2158193,17.7412092 21.4208984,18.0830078 C21.6259776,18.4248064 21.6464852,18.7665999 21.4824219,19.1083984 C21.3183586,19.450197 21.0517597,19.6484372 20.6826172,19.703125 C20.3134747,19.7578128 20.0263682,19.7851562 19.8212891,19.7851562 L15.9863281,19.7851562 C15.9863281,20.7558642 15.6445347,21.5830044 14.9609375,22.2666016 C14.2773403,22.9501987 13.4502002,23.2919922 12.4794922,23.2919922 C11.5087842,23.2919922 10.681644,22.9501987 9.99804688,22.2666016 C9.31444971,21.5830044 8.97265625,20.7558642 8.97265625,19.7851562 L5.21972656,19.7851562 C4.90527187,19.7851562 4.58056808,19.747559 4.24560547,19.6723633 C3.91064286,19.5971676 3.6679695,19.4091812 3.51757812,19.1083984 C3.3535148,18.7665999 3.36718654,18.4145526 3.55859375,18.0522461 C3.75000096,17.6899396 4.00976398,17.2900413 4.33789062,16.8525391 C4.7070331,16.374021 5.11034938,15.8305694 5.54785156,15.222168 C5.98535375,14.6137665 6.20410156,13.9814486 6.20410156,13.3251953 L6.20410156,9.0390625 C6.20410156,8.10937035 6.36474449,7.23779704 6.68603516,6.42431641 C7.00732583,5.61083578 7.44823938,4.89990539 8.00878906,4.29150391 C8.56933874,3.68310243 9.23241805,3.20459159 9.99804688,2.85595703 C10.7636757,2.50732248 11.58398,2.33300781 12.4589844,2.33300781 C13.3476607,2.33300781 14.1748009,2.50732248 14.9404297,2.85595703 C15.7060585,3.20459159 16.3725558,3.68310243 16.9399414,4.29150391 C17.5073271,4.89990539 17.9516585,5.61083578 18.2729492,6.42431641 C18.5942399,7.23779704 18.7548828,8.10937035 18.7548828,9.0390625 L18.7548828,13.3251953 C18.7548828,13.9951205 18.9633768,14.6445281 19.3803711,15.2734375 C19.7973654,15.9023469 20.1972637,16.4492164 20.5800781,16.9140625 Z M12.4794922,21.9179688 C13.0673858,21.9179688 13.5698221,21.7094747 13.9868164,21.2924805 C14.4038107,20.8754862 14.6123047,20.3730498 14.6123047,19.7851562 L10.3466797,19.7851562 C10.3466797,20.3730498 10.5551737,20.8754862 10.972168,21.2924805 C11.3891622,21.7094747 11.8915986,21.9179688 12.4794922,21.9179688 Z M19.9648438,18.390625 C19.896484,18.2949214 19.8212895,18.1958013 19.7392578,18.0932617 C19.6572262,17.9907221 19.5751957,17.891602 19.4931641,17.7958984 C19.0419899,17.2490207 18.5737329,16.5961952 18.0883789,15.8374023 C17.6030249,15.0786095 17.3603516,14.2412155 17.3603516,13.3251953 L17.3603516,9.0390625 C17.3603516,8.30077756 17.233888,7.61035478 16.980957,6.96777344 C16.7280261,6.3251921 16.3828147,5.76465083 15.9453125,5.28613281 C15.5078103,4.80761479 14.9917022,4.42822406 14.3969727,4.14794922 C13.8022431,3.86767438 13.1562535,3.72753906 12.4589844,3.72753906 C11.7753872,3.72753906 11.1362334,3.86767438 10.5415039,4.14794922 C9.94677437,4.42822406 9.43066625,4.80761479 8.99316406,5.28613281 C8.55566188,5.76465083 8.21386842,6.3251921 7.96777344,6.96777344 C7.72167846,7.61035478 7.59863281,8.30077756 7.59863281,9.0390625 L7.59863281,13.3251953 C7.59863281,14.2138716 7.34228772,15.030758 6.82958984,15.7758789 C6.31689197,16.5209998 5.86230667,17.1601536 5.46582031,17.6933594 C5.38378865,17.8027349 5.29834029,17.9189447 5.20947266,18.0419922 C5.12060502,18.1650397 5.04199253,18.2812495 4.97363281,18.390625 L19.9648438,18.390625 Z" id=""></path>
        </g>
    </g>
</svg>