<?xml version="1.0" encoding="UTF-8"?>
<svg width="18px" height="19px" viewBox="0 0 18 19" version="1.1" xmlns="http://www.w3.org/2000/svg" xmlns:xlink="http://www.w3.org/1999/xlink">
    <g id="iconMailWhite" stroke="none" stroke-width="1" fill="none" fill-rule="evenodd">
        <g transform="translate(-3.000000, -3.000000)" fill="#FFFFFF" fill-rule="nonzero">
            <path d="M20.9824219,11.4394531 C20.9941407,11.4628907 21,11.4892577 21,11.5185547 L21,20 C21,20.3164078 20.888673,20.5830067 20.6660156,20.7998047 C20.4433583,21.0166026 20.179689,21.125 19.875,21.125 L4.125,21.125 C3.82031098,21.125 3.55664174,21.0166026 3.33398438,20.7998047 C3.11132701,20.5830067 3,20.3164078 3,20 L3,11.5800781 C3,11.3808584 3.06445248,11.1933603 3.19335938,11.0175781 C3.32226627,10.841796 3.42773396,10.712891 3.50976562,10.6308594 L10.8398438,3.59960938 C11.1562516,3.28320154 11.5546851,3.125 12.0351562,3.125 C12.5156274,3.125 12.9140609,3.28320154 13.2304688,3.59960938 L20.5605469,10.6835938 L20.6660156,10.7890625 C20.7011721,10.8242189 20.7304686,10.8593748 20.7539062,10.8945312 L20.7714844,10.9121094 C20.8300784,10.9824222 20.8769529,11.0644527 20.9121094,11.1582031 C20.9472658,11.2519536 20.9707031,11.3457027 20.9824219,11.4394531 Z M7.74609375,15.8867188 L4.125,12.7050781 L4.125,19.2265625 L7.74609375,15.8867188 Z M8.90625,16.3613281 L4.93359375,20 L19.1191406,20 L12.3691406,13.9355469 C12.3222654,13.8886716 12.2607426,13.8535157 12.1845703,13.8300781 C12.1083981,13.8066405 12.0292973,13.7949219 11.9472656,13.7949219 C11.865234,13.7949219 11.7861332,13.8095702 11.7099609,13.8388672 C11.6337887,13.8681642 11.5664065,13.9062498 11.5078125,13.953125 L9.02929688,16.2382812 L9.01171875,16.2558594 C8.99999994,16.279297 8.98242199,16.2998046 8.95898438,16.3173828 C8.93554676,16.334961 8.91796881,16.3496093 8.90625,16.3613281 Z M16.3066406,15.9746094 L19.875,19.1738281 L19.875,12.8105469 L16.3066406,15.9746094 Z M4.828125,10.9121094 L4.79296875,10.9121094 L4.31835938,11.3691406 L8.57226562,15.1308594 L10.7871094,13.0917969 C11.1386736,12.8105455 11.5283182,12.6728515 11.9560547,12.6787109 C12.3837912,12.6845703 12.7617171,12.816405 13.0898438,13.0742188 L15.4804688,15.2011719 L19.734375,11.421875 L18.7675781,10.4550781 L18.7851562,10.4550781 L12.4394531,4.390625 C12.3808591,4.34374977 12.3164066,4.30566421 12.2460938,4.27636719 C12.1757809,4.24707017 12.1054691,4.23242188 12.0351562,4.23242188 C11.9648434,4.23242188 11.8945316,4.24707017 11.8242188,4.27636719 C11.7539059,4.30566421 11.6894534,4.34374977 11.6308594,4.390625 L4.828125,10.9121094 Z" id=""></path>
        </g>
    </g>
</svg>