<?xml version="1.0" encoding="UTF-8"?>
<svg width="22px" height="22px" viewBox="0 0 22 22" version="1.1" xmlns="http://www.w3.org/2000/svg" xmlns:xlink="http://www.w3.org/1999/xlink">
    <g id="" stroke="none" stroke-width="1" fill="none" fill-rule="evenodd">
        <g id="" transform="translate(-336.000000, -11.000000)" stroke="#000000">
            <g id="">
                <g id="" transform="translate(335.000000, 10.000000)">
                    <g id="" transform="translate(2.000000, 2.000000)">
                        <path d="M0.512651135,0 C2.03395751,0.504752118 3.05407237,1.31083006 3.57299572,2.41823382 L5.54285714,12.5808904 C5.87424975,13.528557 6.79372892,14.3001023 7.92054398,14.3001023 L14.7168992,14.3001023 C15.4526152,14.3001023 16.4418248,14.0663307 16.9019252,13.2010486 L19.3052331,6.51402995 C19.6776911,5.38240331 18.9065757,4.62283326 17.7912458,4.62283326 L4.5160974,4.62283326" id="Stroke-1" stroke-width="1.5" stroke-linecap="round" stroke-linejoin="round"></path>
                        <path d="M8.49571429,18.1990476 C8.49571429,17.435792 7.87642484,16.8166667 7.11279467,16.8166667 C6.34947652,16.8166667 5.73095238,17.4354799 5.73095238,18.1990476 C5.73095238,18.9626153 6.34947652,19.5814286 7.11279467,19.5814286 C7.87642484,19.5814286 8.49571429,18.9623032 8.49571429,18.1990476 Z" id="Stroke-3" stroke-width="1.3"></path>
                        <path d="M16.81,18.1990476 C16.81,17.435792 16.1907106,16.8166667 15.4270804,16.8166667 C14.6637622,16.8166667 14.0452381,17.4354799 14.0452381,18.1990476 C14.0452381,18.9626153 14.6637622,19.5814286 15.4270804,19.5814286 C16.1907106,19.5814286 16.81,18.9623032 16.81,18.1990476 Z" id="Stroke-5" stroke-width="1.3"></path>
                    </g>
                </g>
            </g>
        </g>
    </g>
</svg>