<?xml version="1.0" encoding="UTF-8"?>
<svg width="18px" height="18px" viewBox="0 0 18 18" version="1.1" xmlns="http://www.w3.org/2000/svg" xmlns:xlink="http://www.w3.org/1999/xlink">
    <g id="" stroke="none" stroke-width="1" fill="none" fill-rule="evenodd">
        <g id="" transform="translate(-3.000000, -3.000000)">
            <g id="" transform="translate(4.000000, 4.000000)">
                <path d="M9.76108083e-13,0.515136719 C1.76217245,1.27479782 2.77144979,2.07468389 3.02783203,2.91479492 L4.54983271,10.0775387 C4.81301888,10.8065078 5.54325305,11.4 6.43814974,11.4 L11.8356954,11.4 C12.4199881,11.4 13.205601,11.220177 13.5710046,10.5545802 L15.6174316,5.05200195" id="Stroke-1" stroke="#000000" stroke-width="1.7" stroke-linecap="round" stroke-linejoin="round"></path>
                <rect id="Rectangle" fill="#000000" transform="translate(9.500000, 3.750000) scale(1, -1) translate(-9.500000, -3.750000) " x="8.5" y="1" width="2" height="5.5"></rect>
                <path d="M6.80493164,14.9 C6.80493164,14.4859592 6.46888342,14.15 6.05453408,14.15 C5.64045933,14.15 5.30493164,14.4856845 5.30493164,14.9 C5.30493164,15.3143155 5.64045933,15.65 6.05453408,15.65 C6.46888342,15.65 6.80493164,15.3140408 6.80493164,14.9 Z" id="Stroke-3" stroke="#000000" stroke-width="1.5"></path>
                <path d="M12.8049316,14.9 C12.8049316,14.4859592 12.4688834,14.15 12.0545341,14.15 C11.6404593,14.15 11.3049316,14.4856845 11.3049316,14.9 C11.3049316,15.3143155 11.6404593,15.65 12.0545341,15.65 C12.4688834,15.65 12.8049316,15.3140408 12.8049316,14.9 Z" id="Stroke-5" stroke="#000000" stroke-width="1.5"></path>
                <path d="M12.26,5.32 L9.66,8.78666667 C9.59372583,8.87503223 9.46836556,8.89294084 9.38,8.82666667 C9.36483887,8.81529582 9.35137085,8.8018278 9.34,8.78666667 L6.74,5.32 C6.67372583,5.23163444 6.69163444,5.10627417 6.78,5.04 C6.81461923,5.01403557 6.85672596,5 6.9,5 L12.1,5 C12.2104569,5 12.3,5.08954305 12.3,5.2 C12.3,5.24327404 12.2859644,5.28538077 12.26,5.32 Z" id="Path-2" fill="#000000"></path>
            </g>
        </g>
    </g>
</svg>