<?xml version="1.0" encoding="UTF-8"?>
<svg width="20px" height="20px" viewBox="0 0 20 20" version="1.1" xmlns="http://www.w3.org/2000/svg" xmlns:xlink="http://www.w3.org/1999/xlink">
    <g id="iconSearch" stroke="none" stroke-width="1" fill="none" fill-rule="evenodd">
        <g transform="translate(-2.000000, -2.000000)" fill="#000000" fill-rule="nonzero">
            <g transform="translate(3.000000, 3.000000)">
                <path d="M7.5,15.75 C12.0563492,15.75 15.75,12.0563492 15.75,7.5 C15.75,2.94365081 12.0563492,-0.75 7.5,-0.75 C2.94365081,-0.75 -0.75,2.94365081 -0.75,7.5 C-0.75,12.0563492 2.94365081,15.75 7.5,15.75 Z M7.5,14.25 C3.77207794,14.25 0.75,11.2279221 0.75,7.5 C0.75,3.77207794 3.77207794,0.75 7.5,0.75 C11.2279221,0.75 14.25,3.77207794 14.25,7.5 C14.25,11.2279221 11.2279221,14.25 7.5,14.25 Z"></path>
                <polygon points="12.1060336 13.1666937 17.7628878 18.823548 18.823548 17.7628878 13.1666937 12.1060336"></polygon>
            </g>
        </g>
    </g>
</svg>