<?xml version="1.0" encoding="UTF-8"?>
<svg width="20px" height="20px" viewBox="0 0 20 20" version="1.1" xmlns="http://www.w3.org/2000/svg" xmlns:xlink="http://www.w3.org/1999/xlink">
    <g id="iconCallWhite" stroke="none" stroke-width="1" fill="none" fill-rule="evenodd">
        <g transform="translate(-2.000000, -2.000000)" fill="#FFFFFF" fill-rule="nonzero">
            <path d="M7.1171875,2.97265625 C7.48177266,3.48047129 7.88215928,4.05989258 8.31835937,4.7109375 C8.75455947,5.36198242 9.22655996,6.08463145 9.734375,6.87890625 C9.86458398,7.08724062 9.91992197,7.32161328 9.90039062,7.58203125 C9.88085928,7.84244922 9.78645918,8.12239434 9.6171875,8.421875 C9.55208301,8.55208398 9.44140703,8.76041523 9.28515625,9.046875 C9.12890547,9.33333477 8.92708457,9.7044248 8.6796875,10.1601562 C8.95312637,10.5507832 9.30143018,10.9869768 9.72460938,11.46875 C10.1477886,11.9505232 10.6393201,12.4713514 11.1992187,13.03125 C11.7721383,13.6041695 12.2962216,14.1022114 12.7714844,14.5253906 C13.2467472,14.9485698 13.6731752,15.2968736 14.0507812,15.5703125 C14.4934918,15.3098945 14.8613267,15.0983081 15.1542969,14.9355469 C15.4472671,14.7727856 15.6588535,14.6588545 15.7890625,14.59375 C15.9453133,14.5026037 16.1048169,14.434245 16.2675781,14.3886719 C16.4303394,14.3430987 16.5833326,14.3203125 16.7265625,14.3203125 C16.8437506,14.3203125 16.9511714,14.3333332 17.0488281,14.359375 C17.1464849,14.3854168 17.240885,14.4244789 17.3320312,14.4765625 C17.9179717,14.8281268 18.5364551,15.222003 19.1875,15.6582031 C19.8385449,16.0944032 20.5351525,16.5729141 21.2773437,17.09375 C21.4075527,17.1848963 21.5117184,17.3020826 21.5898437,17.4453125 C21.6679691,17.5885424 21.720052,17.7447908 21.7460937,17.9140625 C21.7591146,18.0963551 21.7395836,18.2819001 21.6875,18.4707031 C21.6354164,18.6595062 21.5442715,18.8515615 21.4140625,19.046875 C21.3619789,19.1380213 21.2838547,19.2486973 21.1796875,19.3789062 C21.0755203,19.5091152 20.9518236,19.6588533 20.8085937,19.828125 C20.6783848,19.9973967 20.5091156,20.1894521 20.3007812,20.4042969 C20.0924469,20.6191417 19.8450535,20.8567695 19.5585937,21.1171875 C19.2851549,21.3776055 19.0345063,21.572916 18.8066406,21.703125 C18.5787749,21.833334 18.3802092,21.8984375 18.2109375,21.8984375 L18.171875,21.8984375 C17.4947883,21.8723957 16.78516,21.7259128 16.0429687,21.4589844 C15.3007775,21.192056 14.5195354,20.8112004 13.6992187,20.3164062 C12.8789021,19.8216121 12.0195357,19.2031287 11.1210937,18.4609375 C10.2226518,17.7187463 9.28516113,16.8658902 8.30859375,15.9023438 C7.33202637,14.9257764 6.47591514,13.9882857 5.74023438,13.0898438 C5.00455361,12.1914018 4.38607021,11.3320354 3.88476562,10.5117188 C3.38346104,9.69140215 3.00260547,8.90690479 2.7421875,8.15820312 C2.48176953,7.40950146 2.3385418,6.70312832 2.3125,6.0390625 C2.3125,5.85676992 2.37760352,5.65169385 2.5078125,5.42382812 C2.63802148,5.1959624 2.83333203,4.93880352 3.09375,4.65234375 C3.35416797,4.36588398 3.58854062,4.1217458 3.796875,3.91992188 C4.00520937,3.71809795 4.19400957,3.55208398 4.36328125,3.421875 C4.51953203,3.30468691 4.66927012,3.19401094 4.8125,3.08984375 C4.95572988,2.98567656 5.07942656,2.89453164 5.18359375,2.81640625 C5.32682363,2.71223906 5.47656172,2.63737002 5.6328125,2.59179688 C5.78906328,2.54622373 5.95833242,2.5234375 6.140625,2.5234375 C6.34895937,2.5234375 6.53450439,2.55924443 6.69726562,2.63085938 C6.86002686,2.70247432 6.99999941,2.81640547 7.1171875,2.97265625 Z M5.8671875,3.7734375 C5.60676953,3.95573008 5.35286582,4.1542958 5.10546875,4.36914062 C4.85807168,4.58398545 4.61718867,4.80859258 4.3828125,5.04296875 C4.14843633,5.27734492 3.96289131,5.47916582 3.82617188,5.6484375 C3.68945244,5.81770918 3.6015627,5.96093691 3.5625,6.078125 C3.5885418,6.66406543 3.72525918,7.28905918 3.97265625,7.953125 C4.22005332,8.61719082 4.57812266,9.32356396 5.046875,10.0722656 C5.51562734,10.8209673 6.09504863,11.6087198 6.78515625,12.4355469 C7.47526387,13.2623739 8.27603711,14.1315059 9.1875,15.0429688 C10.0989629,15.9544316 10.9680948,16.7552049 11.7949219,17.4453125 C12.6217489,18.1354201 13.4095015,18.7148414 14.1582031,19.1835938 C14.9069048,19.6523461 15.6165331,20.0104154 16.2871094,20.2578125 C16.9576856,20.5052096 17.5859346,20.6484373 18.171875,20.6875 C18.2630213,20.6484373 18.3932283,20.5572924 18.5625,20.4140625 C18.7317717,20.2708326 18.9335926,20.0820324 19.1679687,19.8476562 C19.4023449,19.6132801 19.6236969,19.3691419 19.8320312,19.1152344 C20.0403656,18.8613269 20.2421865,18.604168 20.4375,18.34375 C20.4765627,18.2916664 20.5026041,18.2428388 20.515625,18.1972656 C20.5286459,18.1516925 20.5286459,18.1093752 20.515625,18.0703125 C19.7604129,17.5364557 19.0670604,17.0612 18.4355469,16.6445312 C17.8040333,16.2278625 17.2343775,15.8567725 16.7265625,15.53125 C16.6744789,15.53125 16.6158857,15.5410155 16.5507812,15.5605469 C16.4856768,15.5800782 16.4140629,15.6093748 16.3359375,15.6484375 C16.2317703,15.713542 16.0364598,15.824218 15.75,15.9804688 C15.4635402,16.1367195 15.0924502,16.3385404 14.6367187,16.5859375 L13.9921875,16.9765625 L13.3476562,16.546875 C12.9309875,16.2604152 12.4720077,15.8925804 11.9707031,15.4433594 C11.4693985,14.9941384 10.9192738,14.4700551 10.3203125,13.8710938 C9.73437207,13.2721324 9.2200543,12.7220077 8.77734375,12.2207031 C8.3346332,11.7193985 7.97005352,11.2604187 7.68359375,10.84375 L7.21484375,10.2382812 L7.60546875,9.5546875 C7.85286582,9.09895605 8.05468672,8.73112119 8.2109375,8.45117188 C8.36718828,8.17122256 8.47786426,7.97265684 8.54296875,7.85546875 C8.58203145,7.77734336 8.61132803,7.70572949 8.63085938,7.640625 C8.65039072,7.57552051 8.66015625,7.51692734 8.66015625,7.46484375 C8.2044248,6.74869434 7.77148643,6.07812812 7.36132812,5.453125 C6.95116982,4.82812188 6.55729355,4.24219023 6.1796875,3.6953125 L6.140625,3.6953125 C6.08854141,3.6953125 6.03971377,3.70182285 5.99414062,3.71484375 C5.94856748,3.72786465 5.9062502,3.7473957 5.8671875,3.7734375 Z" id=""></path>
        </g>
    </g>
</svg>