<?xml version="1.0" encoding="UTF-8"?>
<svg width="24px" height="19px" viewBox="0 0 24 19" version="1.1" xmlns="http://www.w3.org/2000/svg" xmlns:xlink="http://www.w3.org/1999/xlink">
    <g id="iconHeartActive" stroke="none" stroke-width="1" fill="none" fill-rule="evenodd">
        <g transform="translate(0.000000, -3.000000)">
            <g transform="translate(11.667262, 10.667262) rotate(-45.000000) translate(-11.667262, -10.667262) translate(1.667262, 1.167262)">
                <g transform="translate(0.914214, 0.500000)">
                    <path d="M14.8643445,5.54653628 L14.8643445,12.5280204 C14.8643445,13.6325899 13.968914,14.5280204 12.8643445,14.5280204 C12.8627399,14.5280204 12.8611354,14.5280185 12.8595309,14.5280146 L0.199000141,14.4975434 C-0.886569921,14.4949307 -1.77184891,13.6268085 -1.79570338,12.5414974 L-1.94656061,5.67792187 C-1.97083252,4.57361908 -1.09529449,3.65872852 0.00900829761,3.63445661 C0.0191065638,3.63423466 0.0292063664,3.63408921 0.0393068363,3.63402027 L12.8506948,3.54658286 C13.9552386,3.53904437 14.8567594,4.42834287 14.8642979,5.53288665 C14.8643289,5.53743646 14.8643445,5.54198636 14.8643445,5.54653628 Z" id="Rectangle" fill="#1567FF" transform="translate(6.458646, 9.037278) rotate(-90.000000) translate(-6.458646, -9.037278) "></path>
                    <path d="M18.0100505,8.65685425 L18.0100505,15.6568542 C18.0100505,16.7614237 17.11462,17.6568542 16.0100505,17.6568542 L3.01005051,17.6568542 C1.90548101,17.6568542 1.01005051,16.7614237 1.01005051,15.6568542 L1.01005051,8.65685425 C1.01005051,7.55228475 1.90548101,6.65685425 3.01005051,6.65685425 L16.0100505,6.65685425 C17.11462,6.65685425 18.0100505,7.55228475 18.0100505,8.65685425 Z" id="Rectangle" fill="#1EB4F4"></path>
                </g>
            </g>
        </g>
    </g>
</svg>