<?xml version="1.0" encoding="UTF-8"?>
<svg width="56px" height="31px" viewBox="0 0 56 31" version="1.1" xmlns="http://www.w3.org/2000/svg" xmlns:xlink="http://www.w3.org/1999/xlink">
    <!-- Generator: Sketch 59.1 (86144) - https://sketch.com -->
    <title>LUCKYDRAW</title>
    <desc>Created with Sketch.</desc>
    <g id="상품목록" stroke="none" stroke-width="1" fill="none" fill-rule="evenodd">
        <g id="A0_로그인전-01" transform="translate(-246.000000, -1114.000000)" fill="#0031FF" fill-rule="nonzero">
            <g id="trend_pick" transform="translate(0.000000, 898.000000)">
                <g id="shortcut" transform="translate(16.000000, 187.000000)">
                    <g id="shortcut-01" transform="translate(212.000000, 0.000000)">
                        <path d="M26.6484375,38.296875 L22.0625,38.296875 L23.8828125,29.7265625 L20.5703125,29.7265625 L18.171875,41 L26.0703125,41 L26.6484375,38.296875 Z M32.2546875,41.1953125 C34.8328125,41.1953125 36.871875,39.8046875 37.3640625,37.46875 L38.996875,29.7265625 L35.684375,29.7265625 L34.2078125,36.734375 C33.9734375,37.8359375 33.35625,38.40625 32.3953125,38.40625 C31.5203125,38.40625 30.8015625,37.890625 30.8015625,36.9921875 C30.8015625,36.8125 30.825,36.609375 30.871875,36.390625 L32.2859375,29.7265625 L28.9734375,29.7265625 L27.5515625,36.421875 C27.48125,36.75 27.45,37.0859375 27.45,37.3828125 C27.45,39.640625 29.278125,41.1953125 32.2546875,41.1953125 Z M46.86875,34.265625 L50.0796875,34.265625 C50.103125,34.140625 50.11875,33.9609375 50.11875,33.765625 C50.11875,31.3046875 48.15,29.53125 45.4234375,29.53125 C41.4078125,29.53125 38.8375,32.2421875 38.8375,36.46875 C38.8375,39.3359375 40.80625,41.1953125 43.8296875,41.1953125 C46.8765625,41.1953125 49.1890625,39.3828125 49.5796875,36.6875 L46.36875,36.6875 C46.040625,37.8046875 45.1578125,38.5 44.0640625,38.5 C42.9390625,38.5 42.2515625,37.6484375 42.2515625,36.265625 C42.2515625,33.8828125 43.4234375,32.1953125 45.0796875,32.1953125 C46.0953125,32.1953125 46.8765625,32.9609375 46.8765625,33.953125 L46.8751048,34.1967474 C46.8740115,34.2283163 46.8720982,34.2455357 46.86875,34.265625 Z M53.0453125,41 L53.6546875,38.125 L54.8578125,36.859375 L56.5140625,41 L60.1390625,41 L57.6234375,35 L62.6546875,29.7265625 L58.9046875,29.7265625 L54.521875,34.3359375 L54.459375,34.3359375 L55.44375,29.7265625 L52.13125,29.7265625 L49.7328125,41 L53.0453125,41 Z M67.221875,41 L67.9796875,37.4296875 L73.4640625,29.7265625 L69.878125,29.7265625 L66.9796875,34.296875 L66.9171875,34.296875 L65.878125,29.7265625 L62.4484375,29.7265625 L64.6671875,37.4296875 L63.909375,41 L67.221875,41 Z M23.5765625,48.7265625 L21.178125,60 L26.7953125,60 C30.365625,60 32.740625,57.0859375 32.740625,53.03125 C32.740625,50.3125 30.8734375,48.7265625 28.2640625,48.7265625 L23.5765625,48.7265625 Z M26.3578125,51.34375 L27.475,51.34375 C28.646875,51.34375 29.334375,52.1953125 29.334375,53.453125 C29.334375,55.90625 28.084375,57.375 26.31875,57.375 L25.084375,57.375 L26.3578125,51.34375 Z M37.128125,53.953125 L37.7296875,51.171875 L38.9953125,51.171875 C39.909375,51.171875 40.409375,51.5703125 40.409375,52.3671875 C40.409375,53.2890625 39.7140625,53.953125 38.6046875,53.953125 L37.128125,53.953125 Z M34.9328125,48.7265625 L32.534375,60 L35.846875,60 L36.6515625,56.21875 L37.815625,56.21875 L38.878125,60 L42.33125,60 L41.08125,55.90625 C42.8,55.234375 43.7296875,53.6875 43.7296875,52.09375 C43.7296875,50.1640625 42.378125,48.7265625 40.003125,48.7265625 L34.9328125,48.7265625 Z M50.03125,51.4921875 L50.1015625,51.4921875 L50.2734375,55.421875 L48.1015625,55.421875 L50.03125,51.4921875 Z M50.4765625,60 L53.875,60 L52.71875,48.7265625 L48.5625,48.7265625 L42.359375,60 L45.8515625,60 L46.953125,57.7578125 L50.375,57.7578125 L50.4765625,60 Z M61.5984375,53.5859375 L58.575,60 L55.4421875,60 L54.9265625,48.7265625 L58.3328125,48.7265625 L58.1453125,55.75 L58.2078125,55.75 L61.3796875,48.7265625 L63.9421875,48.7265625 L64.2078125,55.75 L64.2703125,55.75 L67.0046875,48.7265625 L70.4109375,48.7265625 L65.1140625,60 L62.0203125,60 L61.6609375,53.5859375 L61.5984375,53.5859375 Z" id="LUCKYDRAW"></path>
                    </g>
                </g>
            </g>
        </g>
    </g>
</svg>