<?xml version="1.0" encoding="UTF-8"?>
<svg width="42px" height="31px" viewBox="0 0 42 31" version="1.1" xmlns="http://www.w3.org/2000/svg" xmlns:xlink="http://www.w3.org/1999/xlink">
    <!-- Generator: Sketch 59.1 (86144) - https://sketch.com -->
    <title>TIMEDEAL</title>
    <desc>Created with Sketch.</desc>
    <g id="상품목록" stroke="none" stroke-width="1" fill="none" fill-rule="evenodd">
        <g id="A0_로그인전-01" transform="translate(-146.000000, -1114.000000)" fill="#000000" fill-rule="nonzero">
            <g id="trend_pick" transform="translate(0.000000, 898.000000)">
                <g id="shortcut" transform="translate(16.000000, 187.000000)">
                    <g id="shortcut-02" transform="translate(106.000000, 0.000000)">
                        <path d="M31.896875,41 L33.7328125,32.3515625 L36.865625,32.3515625 L37.428125,29.7265625 L27.85,29.7265625 L27.2875,32.3515625 L30.4203125,32.3515625 L28.584375,41 L31.896875,41 Z M39.1984375,41 L41.596875,29.7265625 L38.284375,29.7265625 L35.8859375,41 L39.1984375,41 Z M43.515625,41 L45.0234375,33.90625 L45.0859375,33.90625 L46.0234375,41 L47.9296875,41 L51.8515625,33.90625 L51.9453125,33.90625 L50.421875,41 L53.3515625,41 L55.75,29.7265625 L51.6171875,29.7265625 L47.8125,36.796875 L47.75,36.796875 L46.8203125,29.7265625 L42.984375,29.7265625 L40.59375,41 L43.515625,41 Z M63.246875,38.375 L58.60625,38.375 L58.996875,36.5546875 L63.340625,36.5546875 L63.8484375,34.1796875 L59.5046875,34.1796875 L59.8875,32.3515625 L64.5203125,32.3515625 L65.0828125,29.7265625 L57.1375,29.7265625 L54.7390625,41 L62.6921875,41 L63.246875,38.375 Z M27.0375,48.7265625 L24.6390625,60 L30.25625,60 C33.8265625,60 36.2015625,57.0859375 36.2015625,53.03125 C36.2015625,50.3125 34.334375,48.7265625 31.725,48.7265625 L27.0375,48.7265625 Z M29.81875,51.34375 L30.9359375,51.34375 C32.1078125,51.34375 32.7953125,52.1953125 32.7953125,53.453125 C32.7953125,55.90625 31.5453125,57.375 29.7796875,57.375 L28.5453125,57.375 L29.81875,51.34375 Z M44.503125,57.375 L39.8625,57.375 L40.253125,55.5546875 L44.596875,55.5546875 L45.1046875,53.1796875 L40.7609375,53.1796875 L41.14375,51.3515625 L45.7765625,51.3515625 L46.3390625,48.7265625 L38.39375,48.7265625 L35.9953125,60 L43.9484375,60 L44.503125,57.375 Z M52.0390625,51.4921875 L52.109375,51.4921875 L52.28125,55.421875 L50.109375,55.421875 L52.0390625,51.4921875 Z M52.484375,60 L55.8828125,60 L54.7265625,48.7265625 L50.5703125,48.7265625 L44.3671875,60 L47.859375,60 L48.9609375,57.7578125 L52.3828125,57.7578125 L52.484375,60 Z M64.98125,57.296875 L64.403125,60 L56.5046875,60 L58.903125,48.7265625 L62.215625,48.7265625 L60.3953125,57.296875 L64.98125,57.296875 Z" id="TIMEDEAL"></path>
                    </g>
                </g>
            </g>
        </g>
    </g>
</svg>