<?xml version="1.0" encoding="UTF-8"?>
<svg width="42px" height="31px" viewBox="0 0 42 31" version="1.1" xmlns="http://www.w3.org/2000/svg" xmlns:xlink="http://www.w3.org/1999/xlink">
    <!-- Generator: Sketch 59.1 (86144) - https://sketch.com -->
    <title>BEST50</title>
    <desc>Created with Sketch.</desc>
    <g id="상품목록" stroke="none" stroke-width="1" fill="none" fill-rule="evenodd">
        <g id="A0_로그인전-01" transform="translate(-302.000000, -1175.000000)" fill="#000000" fill-rule="nonzero">
            <g id="trend_pick" transform="translate(0.000000, 898.000000)">
                <g id="shortcut" transform="translate(16.000000, 187.000000)">
                    <g id="shortcut-04" transform="translate(286.000000, 0.000000)">
                        <path d="M6.171875,101.46875 C8.625,101.46875 10.40625,99.96875 10.40625,97.875 C10.40625,96.703125 9.5,95.859375 8.3125,95.5859375 L8.3203125,95.5234375 C9.875,95.234375 10.9765625,94.109375 10.9765625,92.59375 C10.9765625,91.25 9.859375,90.1953125 7.625,90.1953125 L2.3984375,90.1953125 L1.84741111e-13,101.46875 L6.171875,101.46875 Z M5.1875,92.25 L6.46875,92.25 C7.2734375,92.25 7.6796875,92.640625 7.6796875,93.1953125 C7.6796875,93.96875 7.0546875,94.5390625 6.109375,94.5390625 L4.703125,94.5390625 L5.1875,92.25 Z M3.71875,99.1953125 L4.265625,96.59375 L5.71875,96.59375 C6.6328125,96.59375 7.109375,97.015625 7.109375,97.6640625 C7.109375,98.59375 6.4296875,99.1953125 5.328125,99.1953125 L3.71875,99.1953125 Z M19.04375,98.84375 L14.403125,98.84375 L14.79375,97.0234375 L19.1375,97.0234375 L19.6453125,94.6484375 L15.3015625,94.6484375 L15.684375,92.8203125 L20.3171875,92.8203125 L20.8796875,90.1953125 L12.934375,90.1953125 L10.5359375,101.46875 L18.4890625,101.46875 L19.04375,98.84375 Z M20.0171875,98.1484375 C20.025,100.375 21.8140625,101.664062 24.853125,101.664062 C27.8296875,101.664062 29.8609375,100.1875 29.8609375,97.8125 C29.8609375,96.25 29.0519508,95.4098095 27.1908925,94.8265946 L25.728125,94.3984375 C24.821875,94.1328125 24.509375,93.8203125 24.509375,93.3671875 C24.509375,92.8359375 25.071875,92.4453125 25.9390625,92.4453125 C26.8765625,92.4453125 27.509375,92.890625 27.5328125,93.5625 L30.55625,93.5625 C30.540625,91.328125 28.7671875,90 25.8609375,90 C23.1265625,90 21.1421875,91.5 21.1421875,93.796875 C21.1421875,95.3359375 22.1421875,96.3515625 24.025,96.921875 L25.2046875,97.28125 C26.2671875,97.609375 26.478125,97.8515625 26.478125,98.265625 C26.478125,98.828125 25.8765625,99.2109375 24.915625,99.2109375 C23.9859375,99.2109375 23.24375,98.765625 23.15,98.1484375 L20.0171875,98.1484375 Z M35.94375,101.46875 L37.7796875,92.8203125 L40.9125,92.8203125 L41.475,90.1953125 L31.896875,90.1953125 L31.334375,92.8203125 L34.4671875,92.8203125 L32.63125,101.46875 L35.94375,101.46875 Z M14.4617188,120.664062 C17.3054688,120.726562 19.4773438,118.867187 19.4304688,116.125 C19.3992188,114.242187 18.0867188,112.929687 16.2898438,112.929687 C15.1570313,112.929687 14.3601563,113.289062 13.7820313,113.9375 L13.7195313,113.9375 L14.4617188,111.703125 L19.6648438,111.703125 L20.2195313,109.195312 L12.3992188,109.195312 L10.4539063,115.734375 L13.3992188,115.734375 C13.7039063,115.335937 14.2820313,115.039062 14.8601563,115.039062 C15.7820313,115.039062 16.3835938,115.617187 16.3835938,116.523437 C16.3835938,117.484375 15.5867188,118.164062 14.6804688,118.164062 C13.7898438,118.164062 13.1492188,117.609375 13.0945313,116.789062 L10.1257813,116.789062 L10.1150391,116.942383 C10.1121094,117.001953 10.1101563,117.070312 10.1101563,117.148437 C10.1101563,118.976562 11.7664063,120.609375 14.4617188,120.664062 Z M24.9273438,120.664062 C28.3414063,120.664062 30.8101563,117.664062 30.8101563,113.523437 C30.8101563,110.8125 29.0367188,109 26.3726563,109 C22.9664063,109 20.5289063,111.96875 20.5289063,116.109375 C20.5289063,118.835937 22.2945313,120.664062 24.9273438,120.664062 Z M23.8726563,116.03125 C23.8726563,113.648437 24.9898438,111.523437 26.2476563,111.523437 C27.0523438,111.523437 27.4664063,112.234375 27.4664063,113.609375 C27.4664063,115.992187 26.3257813,118.140625 25.0601563,118.140625 C24.2789063,118.140625 23.8726563,117.414062 23.8726563,116.03125 Z" id="BEST50"></path>
                    </g>
                </g>
            </g>
        </g>
    </g>
</svg>