<?xml version="1.0" encoding="UTF-8"?>
<svg width="71px" height="31px" viewBox="0 0 71 31" version="1.1" xmlns="http://www.w3.org/2000/svg" xmlns:xlink="http://www.w3.org/1999/xlink">
    <!-- Generator: Sketch 59.1 (86144) - https://sketch.com -->
    <title>MONDAY 2PM</title>
    <desc>Created with Sketch.</desc>
    <g id="상품목록" stroke="none" stroke-width="1" fill="none" fill-rule="evenodd">
        <g id="A0_로그인전-01" transform="translate(-27.000000, -1114.000000)" fill-rule="nonzero">
            <g id="trend_pick" transform="translate(0.000000, 898.000000)">
                <g id="shortcut" transform="translate(16.000000, 187.000000)">
                    <g id="shortcut-03">
                        <g id="MONDAY-2PM" transform="translate(10.982031, 29.531250)">
                            <path d="M2.921875,11.46875 L4.4296875,4.375 L4.4921875,4.375 L5.4296875,11.46875 L7.3359375,11.46875 L11.2578125,4.375 L11.3515625,4.375 L9.828125,11.46875 L12.7578125,11.46875 L15.15625,0.1953125 L11.0234375,0.1953125 L7.21875,7.265625 L7.15625,7.265625 L6.2265625,0.1953125 L2.390625,0.1953125 L0,11.46875 L2.921875,11.46875 Z M21.153125,2.640625 C22.29375,2.640625 23.04375,3.5546875 23.04375,4.9921875 C23.04375,7.2265625 21.746875,9.0234375 20.23125,9.0234375 C19.090625,9.0234375 18.3484375,8.09375 18.3484375,6.6640625 C18.3484375,4.4453125 19.6375,2.640625 21.153125,2.640625 Z M20.1296875,11.6640625 C23.5828125,11.6640625 26.403125,8.9453125 26.403125,4.796875 C26.403125,2.0703125 24.5359375,0 21.23125,0 C17.7703125,0 14.9890625,2.734375 14.9890625,6.8671875 C14.9890625,9.6015625 16.9109375,11.6640625 20.1296875,11.6640625 Z M29.4,11.46875 L30.7046875,5.28125 L30.7671875,5.28125 L33.8375,11.46875 L36.3375,11.46875 L38.7359375,0.1953125 L35.571875,0.1953125 L34.2671875,6.3828125 L34.2046875,6.3828125 L31.134375,0.1953125 L28.634375,0.1953125 L26.2359375,11.46875 L29.4,11.46875 Z M40.1234375,0.1953125 L37.725,11.46875 L43.3421875,11.46875 C46.9125,11.46875 49.2875,8.5546875 49.2875,4.5 C49.2875,1.78125 47.4203125,0.1953125 44.8109375,0.1953125 L40.1234375,0.1953125 Z M42.9046875,2.8125 L44.021875,2.8125 C45.19375,2.8125 45.88125,3.6640625 45.88125,4.921875 C45.88125,7.375 44.63125,8.84375 42.865625,8.84375 L41.63125,8.84375 L42.9046875,2.8125 Z M55.51875,2.9609375 L55.5890625,2.9609375 L55.7609375,6.890625 L53.5890625,6.890625 L55.51875,2.9609375 Z M55.9640625,11.46875 L59.3625,11.46875 L58.20625,0.1953125 L54.05,0.1953125 L47.846875,11.46875 L51.3390625,11.46875 L52.440625,9.2265625 L55.8625,9.2265625 L55.9640625,11.46875 Z M64.4375,11.46875 L61.125,11.46875 L61.8828125,7.8984375 L59.6640625,0.1953125 L63.09375,0.1953125 L64.1328125,4.765625 L64.1953125,4.765625 L67.09375,0.1953125 L70.6796875,0.1953125 L65.1953125,7.8984375 L64.4375,11.46875 Z" id="MONDAY" fill="#00CCA8"></path>
                            <path d="M18.55,22.859375 L21.534375,22.859375 C21.70625,21.9765625 22.3234375,21.4921875 23.159375,21.4921875 C23.8546875,21.4921875 24.3546875,21.8984375 24.3546875,22.5 C24.3546875,23.1800272 23.9329602,23.6384688 22.4673257,24.7231304 L17.721875,28.1953125 L17.221875,30.46875 L26.0265625,30.46875 L26.5578125,27.96875 L22.1359375,27.96875 L22.14375,27.90625 L24.4015625,26.28125 C26.9015625,24.484375 27.58125,23.625 27.58125,22.171875 C27.58125,20.2890625 25.8078125,19 23.39375,19 C20.7375,19 18.690625,20.6328125 18.55,22.859375 Z M29.59375,19.1953125 L27.2109375,30.46875 L30.515625,30.46875 L31.171875,27.390625 L32.7734375,27.390625 C36.0078125,27.390625 38.0234375,25.578125 38.0234375,22.703125 C38.0234375,20.6015625 36.53125,19.1953125 33.8671875,19.1953125 L29.59375,19.1953125 Z M32.375,21.6953125 L33.2421875,21.6953125 C34.1875,21.6953125 34.703125,22.109375 34.703125,23 C34.703125,24.1015625 33.953125,24.9375 32.796875,24.9375 L31.6796875,24.9375 L32.375,21.6953125 Z M40.4265625,30.46875 L37.5046875,30.46875 L39.8953125,19.1953125 L43.73125,19.1953125 L44.6609375,26.265625 L44.7234375,26.265625 L48.528125,19.1953125 L52.6609375,19.1953125 L50.2625,30.46875 L47.3328125,30.46875 L48.85625,23.375 L48.7625,23.375 L44.840625,30.46875 L42.934375,30.46875 L41.996875,23.375 L41.934375,23.375 L40.4265625,30.46875 Z" id="2PM" fill="#FFFFFF"></path>
                        </g>
                    </g>
                </g>
            </g>
        </g>
    </g>
</svg>